<svg version="1.1" xmlns="http://www.w3.org/2000/svg" xmlns:xlink="http://www.w3.org/1999/xlink" width="61.96118" height="61.96118" viewBox="0,0,61.96118,61.96118"><g transform="translate(-289.01941,-149.01941)"><g data-paper-data="{&quot;isPaintingLayer&quot;:true}" fill="none" fill-rule="nonzero" stroke="#ffffff" stroke-width="7.5" stroke-linejoin="miter" stroke-miterlimit="10" stroke-dasharray="" stroke-dashoffset="0" style="mix-blend-mode: normal"><path d="M292.76941,202.28386c0,-6.13911 0,-32.46212 0,-44.02772c0,-3.36974 1.74289,-5.48673 4.57652,-5.48673c10.68725,0 36.89002,0 43.62006,0c3.06969,0 6.2646,3.21677 6.2646,6.30206c0,6.66362 0,32.31227 0,43.21239c0,3.05119 -1.71222,4.94673 -3.61479,4.94673c-5.89211,0 -36.72264,0 -47.28903,0c-2.22995,0 -3.55736,-2.44093 -3.55736,-4.94673z" stroke-linecap="butt"/><path d="M324.04793,185.97729v-13.45291" stroke-linecap="round"/><path d="M337.09318,172.52438v13.45291" stroke-linecap="round"/></g></g></svg>