<svg version="1.1" xmlns="http://www.w3.org/2000/svg" xmlns:xlink="http://www.w3.org/1999/xlink" width="105.42325" height="100.06214" viewBox="0,0,105.42325,100.06214"><g transform="translate(-260.51426,-125.87538)"><g data-paper-data="{&quot;isPaintingLayer&quot;:true}" fill-rule="nonzero" stroke-linejoin="miter" stroke-miterlimit="10" stroke-dasharray="" stroke-dashoffset="0" style="mix-blend-mode: normal"><path d="M275.4827,139.15359c0,0 2.06065,8.52007 1.14438,12.28694c-1.05389,4.33267 -7.11282,12.24999 -7.11282,12.24999" fill="none" stroke="#000000" stroke-width="18" stroke-linecap="round"/><path d="M294.4022,164.85503c0,0 -2.73218,-9.588 -2.12322,-14.00523c0.52944,-3.84038 5.5719,-11.01056 5.5719,-11.01056" data-paper-data="{&quot;index&quot;:null}" fill="none" stroke="#000000" stroke-width="18" stroke-linecap="round"/><path d="M272.57348,169.7259c0,0 8.66146,-1.34803 12.33951,-0.12299c4.23052,1.40905 11.61891,8.1028 11.61891,8.1028" fill="none" stroke="#000000" stroke-width="18" stroke-linecap="round"/><path d="M310.0021,140.38374c0,0 -9.78132,1.92883 -14.13295,0.95618c-3.78335,-0.84563 -10.51135,-6.46454 -10.51135,-6.46454" data-paper-data="{&quot;index&quot;:null}" fill="none" stroke="#000000" stroke-width="18" stroke-linecap="round"/><path d="M277.31251,212.06252c0,-18.0547 0,-53.75145 0,-63.875c0,-5.24578 5.0402,-10.875 9.875,-10.875c10.01108,0 47.3676,0 65.5,0c6.08112,0 10,5.33345 10,10.375c0,10.13097 0,47.01316 0,65c0,6.07923 -5.11327,10 -10,10c-10.18279,0 -48.32905,0 -66.125,0c-5.651,0 -9.25,-4.19297 -9.25,-10.625z" fill="#5a5a5a" stroke="#000000" stroke-width="6.5" stroke-linecap="butt"/><path d="M320.00001,191.14747v-22.29489" fill="none" stroke="#000000" stroke-width="13" stroke-linecap="round"/><path d="M342.68182,191.14747v-22.29489" fill="none" stroke="#000000" stroke-width="13" stroke-linecap="round"/><path d="M350.29144,158.91748c0,0 -6.44416,6.85552 -13.58295,8.1153c-7.86616,1.38814 -31.64397,-0.13408 -31.64397,-0.13408" fill="none" stroke="#5a5a5a" stroke-width="13" stroke-linecap="round"/><path d="M275.4827,139.15358c0,0 2.06065,8.52008 1.14438,12.28694c-1.05389,4.33267 -7.11283,12.24999 -7.11283,12.24999" fill="none" stroke="#e40000" stroke-width="8" stroke-linecap="round"/><path d="M307.0166,174.13032c0,0 -2.73218,-9.588 -2.12322,-14.00523c0.52944,-3.84038 5.5719,-11.01056 5.5719,-11.01056" data-paper-data="{&quot;index&quot;:null}" fill="none" stroke="#e40000" stroke-width="8" stroke-linecap="round"/><path d="M272.57348,169.72589c0,0 8.66145,-1.34803 12.33951,-0.12299c4.23052,1.40905 11.61891,8.1028 11.61891,8.1028" fill="none" stroke="#e40000" stroke-width="8" stroke-linecap="round"/><path d="M310.0021,140.38374c0,0 -9.78132,1.92883 -14.13295,0.95617c-3.78335,-0.84564 -10.51135,-6.46453 -10.51135,-6.46453" data-paper-data="{&quot;index&quot;:null}" fill="none" stroke="#e40000" stroke-width="8" stroke-linecap="round"/></g></g></svg>