<svg version="1.1" xmlns="http://www.w3.org/2000/svg" xmlns:xlink="http://www.w3.org/1999/xlink" width="131.70237" height="91.875" viewBox="0,0,131.70237,91.875"><g transform="translate(-264.89186,-133.94499)"><g data-paper-data="{&quot;isPaintingLayer&quot;:true}" fill-rule="nonzero" stroke-linejoin="miter" stroke-miterlimit="10" stroke-dasharray="" stroke-dashoffset="0" style="mix-blend-mode: normal"><path d="M295.88521,193.01287c0,-5.07617 0,-30.32268 0,-30.32268c0,0 66.45604,0 74.03662,0c1.37552,0 2.43766,1.57608 2.43766,3.17814c0,4.02048 0,21.54834 0,28.08461c0,1.53939 -0.75791,2.4691 -2.08513,2.4691c-5.01587,0 -18.16285,0 -29.2597,0c-0.59742,0 -2.53637,-0.63896 -2.89758,-1.58897c-1.04642,-2.75215 -1.99833,-8.11471 -3.03398,-8.11471c-1.36096,0 -2.78357,5.77687 -4.02925,8.41603c-0.36879,0.78133 -2.45559,1.28764 -3.20017,1.28764c-9.5127,0 -23.4425,0 -29.2597,0c-1.70136,0 -2.70877,-1.7071 -2.70877,-3.40917z" fill="#232323" stroke="#000000" stroke-width="11" stroke-linecap="butt"/><path d="M270.39186,172.68384c0,-2.40944 0,-6.44564 0,-7.87309c0,-1.00478 1.22595,-2.11516 2.46769,-2.11516c3.82251,0 23.38425,0 23.38425,0v11.86839c0,0 -20.09892,0 -23.73678,0c-1.08594,0 -2.11516,-0.76622 -2.11516,-1.88014z" fill="#232323" stroke="#000000" stroke-width="11" stroke-linecap="butt"/><path d="M372.13395,168.71953c-1.71277,-1.02721 -3.50523,-1.30394 -3.50523,-1.30394c0,0 1.28282,-0.56865 2.7007,-2.3205c1.41788,-1.75184 2.15394,-4.65804 2.15394,-4.65804c0,0 1.55082,2.45346 2.73829,3.44955c1.18748,0.99609 4.20885,1.76118 4.20885,1.76118c0,0 -2.7642,1.31133 -3.79555,2.64465c-1.03135,1.33332 -1.8159,3.91901 -1.8159,3.91901c0,0 -0.97232,-2.46471 -2.68509,-3.49191z" fill="#ffc500" stroke="#000000" stroke-width="11" stroke-linecap="round"/><path d="M372.13397,168.71954c1.71278,1.02721 2.68509,3.49191 2.68509,3.49191c0,0 0.78455,-2.5857 1.8159,-3.91901c1.03136,-1.33331 3.79555,-2.64465 3.79555,-2.64465c0,0 -3.02138,-0.76509 -4.20885,-1.76118c-1.18747,-0.99608 -2.73829,-3.44955 -2.73829,-3.44955c0,0 -0.73606,2.9062 -2.15395,4.65805c-1.41789,1.75185 -2.70069,2.3205 -2.70069,2.3205c0,0 1.79245,0.27673 3.50523,1.30393z" fill-opacity="0.54902" fill="#ffffff" stroke="#000000" stroke-width="11" stroke-linecap="round"/><path d="M277.3125,211.94499c0,-18.0547 0,-53.75145 0,-63.875c0,-5.24578 5.0402,-10.875 9.875,-10.875c10.01108,0 47.3676,0 65.5,0c6.08112,0 10,5.33345 10,10.375c0,10.13097 0,47.01316 0,65c0,6.07923 -5.11327,10 -10,10c-10.18279,0 -48.32905,0 -66.125,0c-5.651,0 -9.25,-4.19297 -9.25,-10.625z" fill="#5a5a5a" stroke="#000000" stroke-width="6.5" stroke-linecap="butt"/><path d="M295.88521,193.01287c0,-5.07617 0,-30.32268 0,-30.32268c0,0 66.45604,0 74.03662,0c1.37552,0 2.43766,1.57608 2.43766,3.17814c0,4.02048 0,21.54834 0,28.08461c0,1.53939 -0.75791,2.4691 -2.08513,2.4691c-5.01587,0 -18.16285,0 -29.2597,0c-0.59742,0 -2.53637,-0.63896 -2.89758,-1.58897c-1.04642,-2.75215 -1.99833,-8.11471 -3.03398,-8.11471c-1.36096,0 -2.78357,5.77687 -4.02925,8.41603c-0.36879,0.78133 -2.45559,1.28764 -3.20017,1.28764c-9.5127,0 -23.4425,0 -29.2597,0c-1.70136,0 -2.70877,-1.7071 -2.70877,-3.40917z" fill="#232323" stroke="none" stroke-width="0" stroke-linecap="butt"/><path d="M270.39186,172.68384c0,-2.40944 0,-6.44564 0,-7.87309c0,-1.00478 1.22595,-2.11516 2.46769,-2.11516c3.82251,0 23.38425,0 23.38425,0v11.86839c0,0 -20.09892,0 -23.73678,0c-1.08594,0 -2.11516,-0.76622 -2.11516,-1.88014z" fill="#232323" stroke="none" stroke-width="0" stroke-linecap="butt"/><path d="M299.76906,196.40291l11.42665,-33.66738h10.6933l-11.42665,33.66738z" fill="#ffffff" stroke="none" stroke-width="0" stroke-linecap="butt"/><path d="M341.94086,196.40291l11.42665,-33.66738h10.69331l-11.42665,33.66738z" fill="#ffffff" stroke="none" stroke-width="0" stroke-linecap="butt"/><path d="M372.13395,168.71953c-1.71277,-1.02721 -3.50523,-1.30394 -3.50523,-1.30394c0,0 1.28282,-0.56865 2.7007,-2.3205c1.41788,-1.75184 2.15394,-4.65804 2.15394,-4.65804c0,0 1.55082,2.45346 2.73829,3.44955c1.18748,0.99609 4.20885,1.76118 4.20885,1.76118c0,0 -2.7642,1.31133 -3.79555,2.64465c-1.03135,1.33332 -1.8159,3.91901 -1.8159,3.91901c0,0 -0.97232,-2.46471 -2.68509,-3.49191z" fill="#ffc500" stroke="#ffc500" stroke-width="4.5" stroke-linecap="round"/><path d="M372.13397,168.71954c1.71278,1.02721 2.68509,3.49191 2.68509,3.49191c0,0 0.78455,-2.5857 1.8159,-3.91901c1.03136,-1.33331 3.79555,-2.64465 3.79555,-2.64465c0,0 -3.02138,-0.76509 -4.20885,-1.76118c-1.18747,-0.99608 -2.73829,-3.44955 -2.73829,-3.44955c0,0 -0.73606,2.9062 -2.15395,4.65805c-1.41789,1.75185 -2.70069,2.3205 -2.70069,2.3205c0,0 1.79245,0.27673 3.50523,1.30393z" fill-opacity="0.54902" fill="#ffffff" stroke="#ffc500" stroke-width="0" stroke-linecap="round"/></g></g></svg>