<svg version="1.1" xmlns="http://www.w3.org/2000/svg" xmlns:xlink="http://www.w3.org/1999/xlink" width="91.875" height="100.08006" viewBox="0,0,91.875,100.08006"><g transform="translate(-274.0625,-134.0625)"><g data-paper-data="{&quot;isPaintingLayer&quot;:true}" fill-rule="nonzero" stroke-linejoin="miter" stroke-miterlimit="10" stroke-dasharray="" stroke-dashoffset="0" style="mix-blend-mode: normal"><path d="M318.25565,198.15693v26.23564" fill="none" stroke="#000000" stroke-width="19.5" stroke-linecap="round"/><path d="M277.3125,212.0625c0,-18.0547 0,-53.75145 0,-63.875c0,-5.24578 5.0402,-10.875 9.875,-10.875c10.01108,0 47.3676,0 65.5,0c6.08112,0 10,5.33345 10,10.375c0,10.13097 0,47.01316 0,65c0,6.07923 -5.11327,10 -10,10c-10.18279,0 -48.32905,0 -66.125,0c-5.651,0 -9.25,-4.19297 -9.25,-10.625z" fill="#5a5a5a" stroke="#000000" stroke-width="6.5" stroke-linecap="butt"/><path d="M320,168.85256v22.29489" fill="none" stroke="#000000" stroke-width="13" stroke-linecap="round"/><path d="M342.68179,168.85256v22.29489" fill="none" stroke="#000000" stroke-width="13" stroke-linecap="round"/><path d="M277.3125,212.0625c0,-18.0547 0,-53.75145 0,-63.875c0,-5.24578 5.0402,-10.875 9.875,-10.875c10.01108,0 47.3676,0 65.5,0c6.08112,0 10,5.33345 10,10.375c0,10.13097 0,47.01316 0,65c0,6.07923 -5.11327,10 -10,10c-10.18279,0 -48.32905,0 -66.125,0c-5.651,0 -9.25,-4.19297 -9.25,-10.625z" fill="#5a5a5a" stroke="#000000" stroke-width="6.5" stroke-linecap="butt"/><path d="M320,168.85256v22.29489" fill="none" stroke="#000000" stroke-width="13" stroke-linecap="round"/><path d="M342.68179,168.85256v22.29489" fill="none" stroke="#000000" stroke-width="13" stroke-linecap="round"/><path d="M323.93658,164.20757c0,0 -3.99947,6.3664 -7.87911,7.83561c-4.12334,1.5615 -16.1744,1.27342 -16.1744,1.27342" fill="none" stroke="#5a5a5a" stroke-width="16.5" stroke-linecap="round"/><path d="M350.58757,173.3166c0,0 0.19664,0.28808 -3.9267,-1.27342c-3.87964,-1.46921 -7.87911,-7.83561 -7.87911,-7.83561" data-paper-data="{&quot;index&quot;:null}" fill="none" stroke="#5a5a5a" stroke-width="16.5" stroke-linecap="round"/><path d="M312.57584,196.46101l10.78794,-0.05961" fill="none" stroke="#00b5ff" stroke-width="12.5" stroke-linecap="round"/><path d="M337.66822,195.99591l11.26475,0.35761" fill="none" stroke="#00b5ff" stroke-width="12.5" stroke-linecap="round"/><path d="M318.25565,198.15693v26.23564" fill="none" stroke="#00b5ff" stroke-width="12.5" stroke-linecap="round"/><path d="M343.10682,197.53392v10.10661" fill="none" stroke="#00b5ff" stroke-width="12.5" stroke-linecap="round"/></g></g></svg>