<svg version="1.1" xmlns="http://www.w3.org/2000/svg" xmlns:xlink="http://www.w3.org/1999/xlink" width="91.875" height="91.875" viewBox="0,0,91.875,91.875"><g transform="translate(-274.0625,-134.0625)"><g data-paper-data="{&quot;isPaintingLayer&quot;:true}" fill-rule="nonzero" stroke-linejoin="miter" stroke-miterlimit="10" stroke-dasharray="" stroke-dashoffset="0" style="mix-blend-mode: normal"><path d="M277.3125,212.0625c0,-18.0547 0,-53.75145 0,-63.875c0,-5.24578 5.0402,-10.875 9.875,-10.875c10.01108,0 47.3676,0 65.5,0c6.08112,0 10,5.33345 10,10.375c0,10.13097 0,47.01316 0,65c0,6.07923 -5.11327,10 -10,10c-10.18279,0 -48.32905,0 -66.125,0c-5.651,0 -9.25,-4.19297 -9.25,-10.625z" fill="#5a5a5a" stroke="#000000" stroke-width="6.5" stroke-linecap="butt"/><path d="M320,168.85256v22.29489" fill="none" stroke="#000000" stroke-width="13" stroke-linecap="round"/><path d="M342.68179,168.85256v22.29489" fill="none" stroke="#000000" stroke-width="13" stroke-linecap="round"/><path d="M305.98189,197.21594c0,0 10.21135,-2.85541 14.28715,-2.88382c4.04602,-0.02819 10.07895,2.71403 10.07895,2.71403" fill="none" stroke="#5a5a5a" stroke-width="13" stroke-linecap="round"/><path d="M352.61827,197.03903c0,0 -6.70896,-2.84704 -10.6332,-2.98982c-4.17685,-0.15197 -13.71737,2.10386 -13.71737,2.10386" fill="none" stroke="#5a5a5a" stroke-width="13" stroke-linecap="round"/></g></g></svg>