<svg version="1.1" xmlns="http://www.w3.org/2000/svg" xmlns:xlink="http://www.w3.org/1999/xlink" width="91.875" height="100.97895" viewBox="0,0,91.875,100.97895"><g transform="translate(-274.0625,-134.06251)"><g data-paper-data="{&quot;isPaintingLayer&quot;:true}" fill-rule="nonzero" stroke-linejoin="miter" stroke-miterlimit="10" stroke-dasharray="" stroke-dashoffset="0" style="mix-blend-mode: normal"><path d="M312.08977,184.80527c0.40636,-5.87634 14.32428,9.68278 14.32428,9.68278c0,0 14.99412,-17.58207 14.21663,-6.339c-0.77749,11.24308 -18.79116,25.04264 -18.79116,25.04264c0,0 -10.15612,-22.51008 -9.74975,-28.38643z" data-paper-data="{&quot;index&quot;:null}" fill="#ff4c4c" stroke="#000000" stroke-width="28" stroke-linecap="round"/><path d="M277.3125,212.06251c0,-18.0547 0,-53.75145 0,-63.875c0,-5.24578 5.0402,-10.875 9.875,-10.875c10.01108,0 47.3676,0 65.5,0c6.08112,0 10,5.33345 10,10.375c0,10.13097 0,47.01316 0,65c0,6.07923 -5.11327,10 -10,10c-10.18279,0 -48.32905,0 -66.125,0c-5.651,0 -9.25,-4.19297 -9.25,-10.625z" fill="#5a5a5a" stroke="#000000" stroke-width="6.5" stroke-linecap="butt"/><path d="M311.63036,161.05619v22.29489" fill="none" stroke="#000000" stroke-width="13" stroke-linecap="round"/><path d="M334.31215,183.35108v-22.29489" fill="none" stroke="#000000" stroke-width="13" stroke-linecap="round"/><path d="M306.76253,188.78193c0,0 -5.90453,-10.0007 17.88316,-9.6447c18.75199,-1.97008 14.53779,11.44817 14.53779,11.44817" fill="none" stroke="#5a5a5a" stroke-width="13" stroke-linecap="round"/><path d="M331.0479,188.82144l-22.32061,-0.5534" fill="none" stroke="#5a5a5a" stroke-width="13" stroke-linecap="round"/><path d="M308.30624,188.35949c0.40636,-5.87634 14.32428,9.68279 14.32428,9.68279c0,0 14.99412,-17.58207 14.21663,-6.339c-0.77749,11.24308 -16.1066,23.96881 -16.1066,23.96881c0,0 -12.84067,-21.43626 -12.43431,-27.3126z" data-paper-data="{&quot;index&quot;:null}" fill="#ff4c4c" stroke="#ff4c4c" stroke-width="17" stroke-linecap="round"/></g></g></svg>