<svg version="1.1" xmlns="http://www.w3.org/2000/svg" xmlns:xlink="http://www.w3.org/1999/xlink" width="107.61341" height="97.48891" viewBox="0,0,107.61341,97.48891"><g transform="translate(-274.06252,-128.44861)"><g data-paper-data="{&quot;isPaintingLayer&quot;:true}" fill-rule="nonzero" stroke-linejoin="miter" stroke-miterlimit="10" stroke-dasharray="" stroke-dashoffset="0" style="mix-blend-mode: normal"><path d="M335.77478,148.47269c0,0 25.15062,-16.73058 31.40115,8.04091c3.95307,15.66645 -18.89286,26.24805 -18.89286,26.24805l3.04585,10.61697" fill="none" stroke="#000000" stroke-width="29" stroke-linecap="round"/><path d="M349.37999,207.16718c1.49217,-3.71547 5.7138,-5.51781 9.42926,-4.02564c3.71547,1.49217 5.51781,5.71379 4.02564,9.42926c-1.49217,3.71547 -5.7138,5.51782 -9.42926,4.02565c-3.71547,-1.49217 -5.51781,-5.7138 -4.02564,-9.42927z" fill="#ffffff" stroke="#000000" stroke-width="8.5" stroke-linecap="butt"/><path d="M277.31252,212.06252c0,-18.0547 0,-53.75145 0,-63.875c0,-5.24578 5.0402,-10.875 9.875,-10.875c10.01108,0 47.3676,0 65.5,0c6.08112,0 10,5.33345 10,10.375c0,10.13097 0,47.01316 0,65c0,6.07923 -5.11327,10 -10,10c-10.18279,0 -48.32905,0 -66.125,0c-5.651,0 -9.25,-4.19297 -9.25,-10.625z" fill="#5a5a5a" stroke="#000000" stroke-width="6.5" stroke-linecap="butt"/><path d="M308.49865,188.67406v-22.29489" fill="none" stroke="#000000" stroke-width="13" stroke-linecap="round"/><path d="M331.18044,166.37917v22.29489" fill="none" stroke="#000000" stroke-width="13" stroke-linecap="round"/><path d="M312.43521,161.73416c0,0 -3.99947,6.3664 -7.87911,7.83561c-4.12334,1.5615 -16.1744,1.27342 -16.1744,1.27342" fill="none" stroke="#5a5a5a" stroke-width="16.5" stroke-linecap="round"/><path d="M349.37999,207.16718c1.49217,-3.71547 5.7138,-5.51781 9.42926,-4.02564c3.71547,1.49217 5.51781,5.71379 4.02564,9.42926c-1.49217,3.71547 -5.7138,5.51782 -9.42926,4.02565c-3.71547,-1.49217 -5.51781,-5.7138 -4.02564,-9.42927z" fill="#ffffff" stroke="#ffffff" stroke-width="0" stroke-linecap="butt"/><path d="M336.48642,146.90708c0,0 24.43898,-15.3073 30.68951,9.4642c3.95307,15.66645 -17.18492,25.96339 -17.18492,25.96339l1.33791,10.90163" fill="none" stroke="#ffffff" stroke-width="16.5" stroke-linecap="round"/></g></g></svg>